<svg aria-hidden="true" style="position: absolute; width: 0; height: 0; overflow: hidden;" version="1.1" xmlns="http://www.w3.org/2000/svg" xmlns:xlink="http://www.w3.org/1999/xlink">
<defs>
<symbol id="icon-home" viewBox="0 0 256 256">
<title>home</title>
<path d="M256 147.611l-128-99.356-128 99.357v-40.51l128-99.356 128 99.357zM224 144v96h-64v-64h-64v64h-64v-96l96-72z"></path>
</symbol>
<symbol id="icon-home2" viewBox="0 0 256 256">
<title>home2</title>
<path d="M128 8l-128 128 24 24 24-24v104h64v-48h32v48h64v-104l24 24 24-24-128-128zM128 112c-8.837 0-16-7.163-16-16s7.163-16 16-16c8.837 0 16 7.163 16 16s-7.163 16-16 16z"></path>
</symbol>
<symbol id="icon-home3" viewBox="0 0 256 256">
<title>home3</title>
<path d="M256 152l-48-48v-72h-32v40l-48-48-128 128v8h32v80h80v-48h32v48h80v-80h32z"></path>
</symbol>
<symbol id="icon-connection" viewBox="0 0 320 256">
<title>connection</title>
<path d="M160 144c26.468 0 50.468 10.767 67.851 28.149l-22.617 22.617c-11.589-11.589-27.589-18.767-45.233-18.767s-33.644 7.178-45.233 18.767l-22.617-22.617c17.383-17.383 41.383-28.149 67.85-28.149zM46.863 126.863c30.22-30.22 70.4-46.863 113.137-46.863s82.917 16.643 113.137 46.863l-22.627 22.627c-24.177-24.176-56.32-37.49-90.51-37.49s-66.334 13.314-90.51 37.49l-22.627-22.627zM247.196 33.609c26.675 11.283 50.629 27.432 71.196 47.999v0l-22.627 22.627c-36.264-36.264-84.48-56.236-135.764-56.236s-99.5 19.972-135.764 56.236l-22.628-22.627c20.567-20.567 44.52-36.715 71.196-47.998 27.626-11.684 56.963-17.61 87.196-17.61s59.57 5.925 87.196 17.61zM144 224c0-8.837 7.163-16 16-16s16 7.163 16 16c0 8.837-7.163 16-16 16s-16-7.163-16-16z"></path>
</symbol>
<symbol id="icon-file-empty" viewBox="0 0 256 256">
<title>file-empty</title>
<path d="M229.452 57.269c-5.553-7.573-13.293-16.425-21.794-24.926s-17.353-16.241-24.926-21.794c-12.893-9.455-19.148-10.549-22.731-10.549h-124c-11.028 0-20 8.972-20 20v216c0 11.028 8.972 20 20 20h184c11.028 0 20-8.972 20-20v-156c0-3.583-1.093-9.838-10.548-22.731zM196.344 43.657c7.675 7.675 13.7 14.599 18.145 20.343h-38.489v-38.486c5.746 4.445 12.669 10.47 20.344 18.143zM224 236c0 2.168-1.832 4-4 4h-184c-2.168 0-4-1.832-4-4v-216c0-2.168 1.832-4 4-4 0 0 123.989-0.001 124 0v56c0 4.418 3.582 8 8 8h56v156z"></path>
</symbol>
<symbol id="icon-files-empty" viewBox="0 0 256 256">
<title>files-empty</title>
<path d="M229.452 89.269c-5.553-7.573-13.293-16.425-21.794-24.926s-17.353-16.241-24.926-21.794c-12.893-9.455-19.148-10.549-22.731-10.549h-92c-11.029 0-20 8.972-20 20v184c0 11.028 8.971 20 20 20h152c11.028 0 20-8.972 20-20v-124c0-3.583-1.093-9.838-10.548-22.731zM196.344 75.656c7.675 7.675 13.7 14.6 18.145 20.344h-38.489v-38.486c5.745 4.445 12.669 10.47 20.344 18.143v0zM224 236c0 2.168-1.832 4-4 4h-152c-2.168 0-4-1.832-4-4v-184c0-2.168 1.832-4 4-4 0 0 91.989-0.001 92 0v56c0 4.418 3.581 8 8 8h56v124z"></path>
<path d="M150.731 10.549c-12.893-9.456-19.148-10.549-22.731-10.549h-92c-11.028 0-20 8.972-20 20v184c0 9.658 6.882 17.739 16 19.597v-203.597c0-2.168 1.832-4 4-4h121.719c-2.411-1.98-4.757-3.815-6.988-5.451z"></path>
</symbol>
<symbol id="icon-folder-download" viewBox="0 0 256 256">
<title>folder-download</title>
<path d="M144 64l-32-32h-112v208h256v-176h-112zM128 216l-56-56h40v-64h32v64h40l-56 56z"></path>
</symbol>
<symbol id="icon-folder-upload" viewBox="0 0 256 256">
<title>folder-upload</title>
<path d="M144 64l-32-32h-112v208h256v-176h-112zM128 120l56 56h-40v64h-32v-64h-40l56-56z"></path>
</symbol>
<symbol id="icon-clock" viewBox="0 0 256 256">
<title>clock</title>
<path d="M164.686 187.314l-52.686-52.686v-70.627h32v57.373l43.314 43.314zM128 0c-70.692 0-128 57.307-128 128s57.307 128 128 128 128-57.308 128-128-57.308-128-128-128zM128 224c-53.019 0-96-42.981-96-96s42.981-96 96-96c53.019 0 96 42.981 96 96s-42.981 96-96 96z"></path>
</symbol>
<symbol id="icon-clock2" viewBox="0 0 256 256">
<title>clock2</title>
<path d="M128 0c-70.692 0-128 57.307-128 128s57.307 128 128 128 128-57.308 128-128-57.308-128-128-128zM164.686 187.314l-52.686-52.686v-70.627h32v57.373l43.314 43.314-22.628 22.628z"></path>
</symbol>
<symbol id="icon-bell" viewBox="0 0 256 256">
<title>bell</title>
<path d="M256.375 200c0-72-64-56-64-112 0-4.64-0.447-8.605-1.262-11.982-4.208-28.255-23.039-50.93-47.443-57.84 0.216-0.987 0.33-2.008 0.33-3.053 0-8.319-7.2-15.126-16-15.126s-16 6.806-16 15.125c0 1.045 0.114 2.066 0.33 3.052-27.367 7.75-47.728 35.325-48.313 68.361-0.010 0.48-0.016 0.966-0.016 1.462 0 56.001-64 40.001-64 112.001 0 19.056 42.648 34.999 99.743 39.020 5.381 10.101 16.014 16.98 28.258 16.98s22.877-6.879 28.257-16.98c57.095-4.021 99.743-19.964 99.743-39.020 0-0.057-0.006-0.114-0.007-0.171l0.382 0.171zM206.561 213.524c-13.558 3.618-29.54 6.219-46.692 7.662-1.426-16.355-15.145-29.186-31.87-29.186s-30.444 12.832-31.87 29.186c-17.152-1.443-33.135-4.044-46.692-7.662-18.657-4.978-27.578-10.548-30.842-13.524 3.264-2.976 12.184-8.546 30.842-13.524 21.693-5.788 49.593-8.976 78.561-8.976s56.869 3.188 78.561 8.976c18.657 4.978 27.577 10.548 30.842 13.524-3.264 2.976-12.185 8.546-30.842 13.524z"></path>
</symbol>
<symbol id="icon-database" viewBox="0 0 256 256">
<title>database</title>
<path d="M128 0c-70.692 0-128 17.909-128 40v32c0 22.091 57.307 40 128 40s128-17.909 128-40v-32c0-22.091-57.308-40-128-40z"></path>
<path d="M128 136c-70.692 0-128-17.909-128-40v48c0 22.091 57.307 40 128 40s128-17.909 128-40v-48c0 22.091-57.308 40-128 40z"></path>
<path d="M128 208c-70.692 0-128-17.909-128-40v48c0 22.091 57.307 40 128 40s128-17.909 128-40v-48c0 22.091-57.308 40-128 40z"></path>
</symbol>
<symbol id="icon-undo" viewBox="0 0 256 256">
<title>undo</title>
<path d="M128 16c-35.346 0-67.344 14.33-90.508 37.495l-37.492-37.495v96h96l-35.883-35.88c17.374-17.373 41.373-28.12 67.883-28.12 53.017 0 96 42.981 96 96 0 28.674-12.573 54.409-32.505 72l21.166 24c26.576-23.454 43.338-57.769 43.338-96 0-70.692-57.308-128-128-128z"></path>
</symbol>
<symbol id="icon-redo" viewBox="0 0 256 256">
<title>redo</title>
<path d="M0 144c0 38.231 16.762 72.546 43.337 96l21.166-24c-19.931-17.591-32.504-43.326-32.504-72 0-53.019 42.982-96 96-96 26.511 0 50.51 10.746 67.882 28.12l-35.882 35.88h96v-96l-37.493 37.495c-23.163-23.165-55.161-37.495-90.507-37.495-70.692 0-128 57.308-128 128z"></path>
</symbol>
<symbol id="icon-hour-glass" viewBox="0 0 256 256">
<title>hour-glass</title>
<path d="M182.248 128c34.439-21.834 57.752-63.802 57.752-112 0-5.419-0.298-10.758-0.869-16h-222.261c-0.573 5.242-0.87 10.582-0.87 16 0 48.198 23.314 90.166 57.752 112-34.438 21.834-57.752 63.802-57.752 112 0 5.419 0.297 10.758 0.869 16h222.261c0.572-5.242 0.869-10.581 0.869-16 0-48.198-23.313-90.166-57.751-112zM40 240c0-46.728 20.041-86.353 56-99.427v-25.147c-35.959-13.073-56-52.698-56-99.427v0h176c0 46.728-20.041 86.354-56 99.427v25.147c35.959 13.073 56 52.699 56 99.427h-176zM154.906 167.399c-17.913-10.161-18.902-23.342-18.906-31.341v-16.057c0-7.998 0.951-21.228 18.936-31.416 9.626-5.591 17.952-14.087 24.262-24.584h-102.395c6.317 10.508 14.653 19.010 24.291 24.602 17.913 10.161 18.901 23.341 18.907 31.341v16.057c0 7.998-0.951 21.228-18.936 31.416-18.156 10.545-31.684 31.421-35.773 56.584h125.417c-4.091-25.177-17.632-46.062-35.803-56.601z"></path>
</symbol>
<symbol id="icon-spinner" viewBox="0 0 256 256">
<title>spinner</title>
<path d="M96 32c0-17.673 14.327-32 32-32s32 14.327 32 32c0 17.673-14.327 32-32 32s-32-14.327-32-32zM163.882 60.117c0-17.673 14.327-32 32-32s32 14.327 32 32c0 17.673-14.327 32-32 32s-32-14.327-32-32zM208 128c0-8.837 7.163-16 16-16s16 7.163 16 16c0 8.837-7.163 16-16 16s-16-7.163-16-16zM179.882 195.882c0-8.837 7.163-16 16-16s16 7.163 16 16c0 8.837-7.163 16-16 16s-16-7.163-16-16zM112.001 224c0 0 0 0 0 0 0-8.837 7.163-16 16-16s16 7.163 16 16c0 0 0 0 0 0 0 8.837-7.163 16-16 16s-16-7.163-16-16zM44.118 195.882c0 0 0 0 0 0 0-8.837 7.163-16 16-16s16 7.163 16 16c0 0 0 0 0 0 0 8.837-7.163 16-16 16s-16-7.163-16-16zM36.118 60.117c0 0 0 0 0 0 0-13.255 10.745-24 24-24s24 10.745 24 24c0 0 0 0 0 0 0 13.255-10.745 24-24 24s-24-10.745-24-24zM14 128c0-9.941 8.059-18 18-18s18 8.059 18 18c0 9.941-8.059 18-18 18s-18-8.059-18-18z"></path>
</symbol>
<symbol id="icon-spinner2" viewBox="0 0 256 256">
<title>spinner2</title>
<path d="M256 128c-0.32-16.715-3.946-33.379-10.644-48.615-6.676-15.25-16.365-29.064-28.261-40.48-11.888-11.424-25.986-20.455-41.246-26.413-15.251-5.981-31.649-8.838-47.85-8.492-16.203 0.321-32.333 3.844-47.084 10.339-14.762 6.474-28.136 15.867-39.184 27.394-11.056 11.52-19.79 25.177-25.547 39.95-5.779 14.766-8.532 30.63-8.187 46.317 0.322 15.69 3.741 31.287 10.034 45.552 6.272 14.275 15.369 27.207 26.527 37.887 11.153 10.689 24.368 19.126 38.653 24.68 14.279 5.576 29.612 8.226 44.785 7.881 15.177-0.322 30.241-3.638 44.019-9.728 13.787-6.071 26.279-14.87 36.591-25.661 10.321-10.785 18.461-23.559 23.814-37.358 3.258-8.364 5.47-17.1 6.636-25.95 0.311 0.018 0.625 0.030 0.94 0.030 8.837 0 16-7.163 16-16 0-0.449-0.024-0.893-0.060-1.333h0.060zM230.577 170.487c-5.868 13.3-14.371 25.35-24.794 35.295-10.417 9.952-22.75 17.797-36.061 22.947-13.307 5.169-27.572 7.613-41.721 7.27-14.151-0.325-28.149-3.434-40.955-9.119-12.813-5.667-24.421-13.873-33.998-23.928-9.584-10.049-17.132-21.941-22.081-34.764-4.968-12.821-7.307-26.553-6.966-40.189 0.326-13.638 3.332-27.103 8.813-39.422 5.465-12.325 13.374-23.492 23.062-32.703 9.683-9.217 21.132-16.468 33.469-21.214 12.335-4.765 25.534-7.002 38.656-6.661 13.125 0.326 26.057 3.23 37.891 8.508 11.838 5.263 22.564 12.876 31.406 22.195 8.849 9.314 15.803 20.323 20.347 32.172 4.562 11.848 6.696 24.514 6.356 37.124h0.060c-0.036 0.44-0.060 0.884-0.060 1.333 0 8.253 6.248 15.043 14.272 15.906-1.556 8.706-4.132 17.204-7.695 25.248z"></path>
</symbol>
<symbol id="icon-spinner3" viewBox="0 0 256 256">
<title>spinner3</title>
<path d="M128 75.774c-8.241 0-14.921-6.681-14.921-14.922v-44.765c0-8.241 6.68-14.921 14.921-14.921s14.922 6.681 14.922 14.921v44.765c0 8.241-6.681 14.922-14.922 14.922z"></path>
<path d="M128 249.239c-5.15 0-9.326-4.175-9.326-9.326v-44.765c0-5.15 4.175-9.326 9.326-9.326s9.326 4.176 9.326 9.326v44.765c0 5.15-4.175 9.326-9.326 9.326z"></path>
<path d="M94.439 83.84c-4.835 0-9.537-2.508-12.128-6.997l-22.383-38.767c-3.863-6.691-1.571-15.246 5.12-19.11s15.246-1.571 19.109 5.12l22.383 38.768c3.863 6.691 1.57 15.246-5.12 19.109-2.203 1.271-4.608 1.876-6.981 1.876z"></path>
<path d="M183.964 233.314c-2.9 0-5.721-1.506-7.277-4.198l-22.382-38.767c-2.317-4.014-0.942-9.148 3.072-11.466 4.014-2.316 9.148-0.942 11.466 3.073l22.383 38.767c2.317 4.014 0.942 9.148-3.073 11.466-1.321 0.762-2.765 1.125-4.189 1.125z"></path>
<path d="M69.836 107.485c-2.215 0-4.46-0.564-6.516-1.752l-38.768-22.382c-6.245-3.606-8.384-11.591-4.779-17.835s11.591-8.385 17.835-4.779l38.768 22.382c6.245 3.606 8.385 11.591 4.779 17.835-2.417 4.189-6.806 6.531-11.319 6.531z"></path>
<path d="M224.912 191.418c-1.266 0-2.549-0.322-3.724-1.001l-38.767-22.382c-3.569-2.060-4.791-6.624-2.731-10.192s6.624-4.792 10.191-2.731l38.767 22.383c3.569 2.060 4.791 6.623 2.731 10.191-1.382 2.393-3.891 3.732-6.469 3.732z"></path>
<path d="M60.852 140.124h-44.765c-6.696 0-12.124-5.428-12.124-12.124s5.428-12.124 12.124-12.124h44.765c6.696 0 12.124 5.428 12.124 12.124s-5.428 12.124-12.124 12.124z"></path>
<path d="M239.912 135.461c-0 0 0 0 0 0h-44.765c-4.12-0-7.461-3.341-7.461-7.461s3.341-7.461 7.461-7.461c0 0 0 0 0 0h44.765c4.12 0 7.461 3.341 7.461 7.461s-3.341 7.461-7.461 7.461z"></path>
<path d="M31.091 195.149c-3.868 0-7.63-2.007-9.703-5.597-3.090-5.352-1.256-12.197 4.096-15.287l38.768-22.383c5.353-3.092 12.198-1.257 15.287 4.096s1.257 12.197-4.096 15.287l-38.768 22.382c-1.763 1.018-3.687 1.501-5.585 1.501z"></path>
<path d="M186.158 101.888c-2.578 0-5.087-1.338-6.469-3.731-2.060-3.569-0.838-8.132 2.731-10.192l38.768-22.382c3.568-2.059 8.131-0.838 10.192 2.731s0.838 8.132-2.731 10.192l-38.767 22.382c-1.175 0.678-2.458 1.001-3.724 1.001z"></path>
<path d="M72.034 235.179c-1.74 0-3.504-0.444-5.12-1.376-4.907-2.833-6.587-9.107-3.755-14.013l22.383-38.768c2.832-4.907 9.106-6.588 14.014-3.756s6.588 9.107 3.755 14.013l-22.382 38.768c-1.9 3.292-5.348 5.131-8.894 5.131z"></path>
<path d="M161.566 77.311c-1.266 0-2.549-0.323-3.724-1.001-3.569-2.061-4.791-6.624-2.731-10.192l22.383-38.767c2.060-3.569 6.623-4.791 10.191-2.73s4.791 6.623 2.731 10.191l-22.383 38.767c-1.382 2.392-3.89 3.731-6.469 3.731z"></path>
</symbol>
<symbol id="icon-spinner4" viewBox="0 0 256 256">
<title>spinner4</title>
<path d="M48 128c0-3.045 0.176-6.049 0.508-9.005l-46.245-15.026c-1.479 7.785-2.263 15.816-2.263 24.031 0 36.808 15.541 69.981 40.413 93.331l28.571-39.324c-13.031-14.232-20.984-33.19-20.984-54.007zM208 128c0 20.817-7.953 39.775-20.984 54.007l28.571 39.324c24.872-23.351 40.413-56.524 40.413-93.331 0-8.216-0.783-16.246-2.262-24.031l-46.245 15.026c0.331 2.957 0.507 5.96 0.507 9.005zM144 49.602c22.983 4.666 42.386 19.185 53.613 38.956l46.245-15.025c-18.299-38.855-55.56-67.015-99.857-72.539v48.608zM58.388 88.558c11.227-19.771 30.629-34.291 53.612-38.956v-48.608c-44.297 5.524-81.558 33.684-99.856 72.538l46.244 15.025zM161.139 200.832c-10.097 4.602-21.318 7.168-33.139 7.168s-23.041-2.566-33.138-7.167l-28.573 39.328c18.302 10.091 39.334 15.84 61.712 15.84s43.41-5.749 61.712-15.84l-28.573-39.328z"></path>
</symbol>
<symbol id="icon-spinner5" viewBox="0 0 256 256">
<title>spinner5</title>
<path d="M128 0c-70.692 0-128 57.307-128 128s57.307 128 128 128 128-57.308 128-128-57.308-128-128-128zM128 64c35.346 0 64 28.654 64 64s-28.654 64-64 64-64-28.654-64-64 28.654-64 64-64zM204.368 204.368c-20.399 20.399-47.52 31.632-76.368 31.632s-55.969-11.234-76.368-31.632-31.633-47.519-31.633-76.368c0-28.847 11.234-55.969 31.633-76.368l16.971 16.971c0 0 0 0 0 0-32.752 32.752-32.752 86.043 0 118.794 15.865 15.865 36.96 24.603 59.397 24.603s43.531-8.738 59.397-24.603c32.751-32.751 32.751-86.042 0-118.794l16.971-16.971c20.399 20.398 31.632 47.52 31.632 76.368s-11.234 55.969-31.632 76.368z"></path>
</symbol>
<symbol id="icon-spinner6" viewBox="0 0 256 256">
<title>spinner6</title>
<path d="M96 32c0-17.673 14.327-32 32-32s32 14.327 32 32c0 17.673-14.327 32-32 32s-32-14.327-32-32zM197.749 128c0 0 0 0 0 0 0-14.498 11.753-26.251 26.251-26.251s26.251 11.753 26.251 26.251c0 0 0 0 0 0 0 14.498-11.753 26.251-26.251 26.251s-26.251-11.753-26.251-26.251zM172.106 195.882c0-13.131 10.645-23.776 23.776-23.776s23.776 10.645 23.776 23.776c0 13.131-10.645 23.776-23.776 23.776s-23.776-10.645-23.776-23.776zM106.466 224c0-11.893 9.641-21.535 21.534-21.535s21.535 9.641 21.535 21.535c0 11.893-9.641 21.535-21.535 21.535s-21.535-9.641-21.535-21.535zM40.614 195.882c0-10.772 8.733-19.505 19.505-19.505s19.505 8.732 19.505 19.505c0 10.772-8.733 19.505-19.505 19.505s-19.505-8.732-19.505-19.505zM14.335 128c0-9.757 7.909-17.666 17.666-17.666s17.666 7.909 17.666 17.666c0 9.756-7.909 17.666-17.666 17.666s-17.666-7.909-17.666-17.666zM44.118 60.118c0 0 0 0 0 0 0-8.837 7.163-16 16-16s16 7.163 16 16c0 0 0 0 0 0 0 8.836-7.163 16-16 16s-16-7.163-16-16zM224.866 60.118c0 16.006-12.976 28.983-28.984 28.983-16.006 0-28.984-12.978-28.984-28.983 0-16.008 12.978-28.983 28.984-28.983 16.007 0 28.984 12.975 28.984 28.983z"></path>
</symbol>
<symbol id="icon-spinner7" viewBox="0 0 256 256">
<title>spinner7</title>
<path d="M104 232c0-13.255 10.745-24 24-24s24 10.745 24 24c0 13.255-10.745 24-24 24s-24-10.745-24-24zM0 128c0-13.255 10.745-24 24-24s24 10.745 24 24c0 13.255-10.745 24-24 24s-24-10.745-24-24zM208 128c0-13.255 10.745-24 24-24s24 10.745 24 24c0 13.255-10.745 24-24 24s-24-10.745-24-24zM30.461 54.461c0-13.255 10.745-24 24-24s24 10.745 24 24c0 13.255-10.745 24-24 24s-24-10.745-24-24zM177.539 201.539c0-13.255 10.745-24 24-24s24 10.745 24 24c0 13.255-10.745 24-24 24s-24-10.745-24-24zM30.461 201.539c0-13.255 10.745-24 24-24s24 10.745 24 24c0 13.255-10.745 24-24 24s-24-10.745-24-24zM177.539 54.461c0-13.255 10.745-24 24-24s24 10.745 24 24c0 13.255-10.745 24-24 24s-24-10.745-24-24z"></path>
</symbol>
<symbol id="icon-spinner8" viewBox="0 0 256 256">
<title>spinner8</title>
<path d="M128 256c-34.19 0-66.334-13.315-90.51-37.49-24.175-24.177-37.49-56.32-37.49-90.51 0-24.21 6.795-47.783 19.651-68.173 12.5-19.824 30.166-35.843 51.089-46.325l10.75 21.458c-17.010 8.521-31.373 21.547-41.538 37.667-10.437 16.552-15.953 35.7-15.953 55.373 0 57.345 46.654 104 104 104s104-46.655 104-104c0-19.673-5.517-38.821-15.952-55.373-10.165-16.121-24.529-29.146-41.537-37.667l10.75-21.458c20.923 10.482 38.59 26.501 51.089 46.325 12.856 20.39 19.651 43.964 19.651 68.173 0 34.19-13.315 66.333-37.49 90.51-24.177 24.175-56.32 37.49-90.51 37.49z"></path>
</symbol>
<symbol id="icon-spinner9" viewBox="0 0 256 256">
<title>spinner9</title>
<path d="M128 0c-69.687 0-126.365 55.691-127.962 124.993 1.48-60.466 47.458-108.993 103.962-108.993 57.438 0 104 50.144 104 112 0 13.255 10.745 24 24 24s24-10.745 24-24c0-70.692-57.308-128-128-128zM128 256c69.687 0 126.365-55.69 127.962-124.993-1.48 60.466-47.458 108.993-103.962 108.993-57.438 0-104-50.144-104-112 0-13.255-10.745-24-24-24s-24 10.745-24 24c0 70.692 57.307 128 128 128z"></path>
</symbol>
<symbol id="icon-spinner10" viewBox="0 0 256 256">
<title>spinner10</title>
<path d="M0.011 128.405l-0.005 0.001c0 0 0.003 0.023 0.007 0.055 0.028 0.97 0.138 1.919 0.331 2.838 0.051 0.436 0.107 0.915 0.168 1.444 0.055 0.471 0.115 0.978 0.179 1.519 0.094 0.642 0.193 1.323 0.297 2.044 0.214 1.436 0.45 3.031 0.727 4.739 0.337 1.612 0.701 3.353 1.091 5.216 0.178 0.929 0.444 1.876 0.696 2.851 0.256 0.972 0.52 1.974 0.79 3.001 0.141 0.511 0.26 1.033 0.427 1.552 0.164 0.518 0.33 1.044 0.497 1.575 0.337 1.059 0.681 2.142 1.034 3.247 0.088 0.276 0.177 0.553 0.266 0.831 0.102 0.275 0.204 0.552 0.306 0.829 0.207 0.554 0.415 1.114 0.625 1.679 0.424 1.124 0.855 2.269 1.295 3.435 0.492 1.142 0.992 2.304 1.501 3.483 0.255 0.587 0.511 1.179 0.77 1.774 0.262 0.594 0.568 1.176 0.852 1.768 0.581 1.179 1.169 2.374 1.765 3.583 0.617 1.196 1.302 2.378 1.962 3.582 0.334 0.6 0.67 1.202 1.007 1.808 0.342 0.602 0.726 1.188 1.089 1.785 0.738 1.185 1.483 2.381 2.233 3.587 3.16 4.724 6.669 9.392 10.553 13.82 3.928 4.394 8.181 8.563 12.673 12.4 4.545 3.784 9.316 7.226 14.181 10.279 4.901 3.009 9.911 5.578 14.844 7.786 1.251 0.51 2.491 1.016 3.719 1.517 0.615 0.243 1.217 0.508 1.834 0.73 0.618 0.217 1.233 0.434 1.844 0.649 1.225 0.421 2.419 0.867 3.621 1.248 1.208 0.357 2.401 0.711 3.578 1.060 0.589 0.168 1.165 0.357 1.751 0.503 0.587 0.143 1.169 0.285 1.746 0.426 1.151 0.28 2.285 0.554 3.401 0.824 1.125 0.217 2.231 0.43 3.317 0.639 0.541 0.102 1.078 0.205 1.609 0.305 0.266 0.050 0.529 0.1 0.791 0.149 0.265 0.037 0.529 0.073 0.791 0.111 1.048 0.145 2.073 0.288 3.075 0.428 0.499 0.069 0.993 0.137 1.481 0.204 0.487 0.071 0.976 0.095 1.454 0.143 0.956 0.084 1.886 0.166 2.791 0.245 0.904 0.076 1.776 0.172 2.632 0.185 0.058 0.002 0.113 0.004 0.171 0.006 0.153 8.703 7.252 15.712 15.992 15.712 0.135 0 0.27-0.007 0.405-0.011v0.006c0 0 0.023-0.003 0.056-0.007 0.97-0.028 1.918-0.137 2.838-0.331 0.437-0.051 0.916-0.107 1.444-0.168 0.471-0.055 0.978-0.115 1.519-0.179 0.642-0.094 1.323-0.193 2.044-0.298 1.436-0.214 3.031-0.45 4.739-0.727 1.612-0.337 3.353-0.701 5.216-1.090 0.929-0.178 1.876-0.445 2.851-0.696 0.973-0.256 1.974-0.52 3.001-0.791 0.511-0.142 1.033-0.26 1.552-0.427 0.518-0.164 1.043-0.329 1.575-0.497 1.058-0.337 2.141-0.681 3.247-1.034 0.276-0.089 0.553-0.177 0.831-0.267 0.275-0.101 0.552-0.203 0.829-0.306 0.554-0.206 1.114-0.415 1.679-0.625 1.124-0.424 2.269-0.856 3.435-1.296 1.142-0.492 2.304-0.993 3.484-1.501 0.587-0.255 1.179-0.511 1.774-0.769 0.594-0.262 1.175-0.567 1.768-0.852 1.179-0.581 2.374-1.169 3.583-1.766 1.196-0.618 2.378-1.302 3.582-1.962 0.6-0.334 1.202-0.669 1.808-1.007 0.602-0.341 1.188-0.725 1.785-1.089 1.185-0.738 2.381-1.482 3.588-2.234 4.722-3.16 9.391-6.668 13.82-10.553 4.393-3.928 8.562-8.181 12.4-12.673 3.784-4.546 7.226-9.316 10.278-14.182 3.009-4.9 5.578-9.911 7.786-14.844 0.511-1.25 1.016-2.491 1.517-3.72 0.244-0.615 0.508-1.217 0.73-1.833 0.218-0.618 0.433-1.233 0.648-1.844 0.422-1.225 0.867-2.419 1.249-3.621 0.358-1.208 0.712-2.401 1.060-3.577 0.168-0.589 0.357-1.165 0.504-1.751 0.143-0.587 0.285-1.169 0.425-1.747 0.28-1.151 0.554-2.285 0.824-3.4 0.217-1.125 0.43-2.232 0.639-3.318 0.102-0.541 0.204-1.077 0.305-1.608 0.050-0.265 0.1-0.529 0.149-0.791 0.037-0.266 0.074-0.53 0.111-0.792 0.145-1.048 0.288-2.073 0.427-3.075 0.070-0.499 0.137-0.993 0.205-1.481 0.071-0.487 0.094-0.976 0.142-1.453 0.084-0.956 0.166-1.887 0.245-2.791 0.076-0.904 0.172-1.776 0.185-2.632 0.005-0.133 0.010-0.261 0.014-0.393 8.806-0.036 15.933-7.185 15.933-15.998 0-0.135-0.007-0.27-0.011-0.405h0.006c0 0-0.003-0.022-0.007-0.056-0.028-0.969-0.137-1.918-0.331-2.838-0.051-0.437-0.107-0.915-0.168-1.444-0.055-0.472-0.115-0.978-0.179-1.519-0.094-0.641-0.192-1.323-0.298-2.044-0.214-1.436-0.45-3.031-0.727-4.739-0.337-1.611-0.701-3.353-1.091-5.216-0.178-0.93-0.444-1.877-0.696-2.852-0.256-0.973-0.519-1.974-0.79-3.001-0.142-0.511-0.26-1.034-0.427-1.552-0.164-0.519-0.33-1.043-0.497-1.575-0.337-1.058-0.681-2.141-1.034-3.248-0.088-0.275-0.177-0.552-0.266-0.831-0.102-0.275-0.203-0.552-0.306-0.829-0.207-0.554-0.415-1.114-0.625-1.678-0.424-1.124-0.856-2.27-1.295-3.435-0.492-1.142-0.993-2.304-1.501-3.484-0.255-0.587-0.511-1.178-0.769-1.775-0.262-0.594-0.567-1.175-0.852-1.769-0.581-1.178-1.169-2.373-1.766-3.582-0.618-1.197-1.302-2.378-1.962-3.582-0.334-0.6-0.67-1.202-1.007-1.808-0.342-0.603-0.726-1.188-1.089-1.785-0.738-1.185-1.482-2.381-2.233-3.588-3.16-4.723-6.669-9.391-10.553-13.819-3.928-4.394-8.181-8.563-12.673-12.401-4.545-3.784-9.316-7.225-14.181-10.278-4.901-3.009-9.911-5.578-14.844-7.785-1.251-0.51-2.491-1.015-3.72-1.517-0.615-0.244-1.217-0.508-1.834-0.73-0.618-0.218-1.232-0.433-1.844-0.648-1.225-0.421-2.419-0.867-3.621-1.248-1.208-0.358-2.401-0.712-3.578-1.061-0.589-0.168-1.165-0.357-1.751-0.503-0.587-0.143-1.169-0.285-1.746-0.425-1.151-0.279-2.286-0.554-3.401-0.825-1.125-0.217-2.232-0.43-3.317-0.639-0.542-0.103-1.077-0.205-1.608-0.305-0.266-0.050-0.53-0.099-0.792-0.149-0.265-0.037-0.53-0.074-0.792-0.11-1.048-0.146-2.073-0.288-3.075-0.427-0.5-0.069-0.993-0.137-1.481-0.205-0.487-0.071-0.976-0.094-1.453-0.142-0.956-0.084-1.886-0.166-2.791-0.245-0.904-0.076-1.776-0.171-2.631-0.184-0.213-0.008-0.418-0.015-0.628-0.023-0.162-8.695-7.257-15.694-15.992-15.694-0.135 0-0.27 0.007-0.405 0.011l-0.001-0.005c0 0-0.022 0.003-0.055 0.007-0.969 0.028-1.919 0.138-2.838 0.331-0.437 0.051-0.915 0.106-1.444 0.168-0.471 0.055-0.978 0.116-1.519 0.179-0.641 0.094-1.323 0.193-2.044 0.298-1.436 0.214-3.031 0.45-4.74 0.727-1.612 0.337-3.353 0.701-5.216 1.091-0.93 0.178-1.876 0.445-2.852 0.696-0.973 0.256-1.974 0.52-3.001 0.79-0.511 0.141-1.033 0.26-1.552 0.427-0.519 0.164-1.043 0.33-1.575 0.497-1.058 0.337-2.141 0.681-3.247 1.034-0.276 0.088-0.552 0.177-0.831 0.266-0.275 0.101-0.552 0.204-0.829 0.306-0.554 0.206-1.114 0.415-1.678 0.625-1.124 0.425-2.269 0.856-3.435 1.296-1.142 0.492-2.304 0.992-3.484 1.501-0.587 0.255-1.178 0.511-1.775 0.77-0.594 0.262-1.175 0.568-1.769 0.852-1.178 0.581-2.373 1.169-3.582 1.765-1.197 0.617-2.378 1.302-3.582 1.962-0.6 0.334-1.202 0.669-1.808 1.007-0.603 0.341-1.188 0.725-1.785 1.088-1.184 0.738-2.381 1.483-3.588 2.234-4.722 3.16-9.391 6.669-13.819 10.553-4.394 3.928-8.562 8.181-12.401 12.672-3.784 4.545-7.225 9.316-10.278 14.182-3.009 4.901-5.578 9.911-7.785 14.844-0.511 1.251-1.015 2.491-1.517 3.719-0.244 0.615-0.508 1.217-0.73 1.834-0.218 0.618-0.433 1.233-0.648 1.844-0.422 1.225-0.867 2.419-1.248 3.621-0.358 1.208-0.712 2.401-1.060 3.578-0.169 0.59-0.358 1.165-0.504 1.751-0.142 0.587-0.285 1.169-0.425 1.747-0.279 1.151-0.554 2.285-0.824 3.4-0.217 1.126-0.43 2.232-0.64 3.318-0.102 0.541-0.204 1.077-0.305 1.609-0.050 0.265-0.099 0.529-0.149 0.791-0.037 0.266-0.074 0.529-0.111 0.792-0.145 1.047-0.288 2.073-0.427 3.075-0.070 0.499-0.137 0.993-0.205 1.481-0.071 0.487-0.094 0.975-0.142 1.453-0.084 0.956-0.166 1.886-0.245 2.791-0.076 0.904-0.171 1.776-0.184 2.632-0.005 0.137-0.010 0.269-0.014 0.405-8.594 0.278-15.476 7.326-15.476 15.986 0 0.136 0.007 0.269 0.011 0.405zM18.38 112.177c0.011-0.049 0.021-0.096 0.032-0.145 0.161-0.812 0.408-1.635 0.639-2.486 0.233-0.847 0.474-1.719 0.72-2.614 0.129-0.445 0.233-0.9 0.387-1.352 0.149-0.451 0.3-0.907 0.453-1.369 0.305-0.921 0.616-1.862 0.934-2.823 0.079-0.24 0.159-0.481 0.239-0.723 0.093-0.239 0.185-0.478 0.279-0.719 0.186-0.481 0.375-0.967 0.565-1.457 0.38-0.976 0.767-1.971 1.162-2.983 0.442-0.99 0.892-1.998 1.348-3.020 0.227-0.51 0.456-1.022 0.686-1.539 0.233-0.515 0.509-1.018 0.763-1.531 0.517-1.021 1.043-2.055 1.573-3.103 0.55-1.035 1.163-2.056 1.75-3.098 0.296-0.519 0.593-1.040 0.892-1.564 0.302-0.522 0.646-1.025 0.969-1.541 0.654-1.025 1.314-2.058 1.979-3.1 2.809-4.075 5.908-8.1 9.333-11.909 3.468-3.776 7.21-7.351 11.15-10.637 3.993-3.232 8.172-6.163 12.419-8.755 4.282-2.548 8.65-4.709 12.933-6.565 1.088-0.425 2.165-0.846 3.234-1.263 0.534-0.203 1.054-0.428 1.59-0.611 0.537-0.178 1.070-0.357 1.601-0.534 1.063-0.346 2.096-0.722 3.137-1.035 1.046-0.294 2.079-0.583 3.098-0.868 0.51-0.138 1.007-0.297 1.513-0.416 0.507-0.114 1.011-0.228 1.511-0.342 0.995-0.227 1.974-0.452 2.937-0.672 0.972-0.172 1.927-0.34 2.865-0.505 0.467-0.083 0.929-0.164 1.386-0.245 0.228-0.041 0.456-0.081 0.682-0.121 0.229-0.028 0.457-0.056 0.683-0.083 0.903-0.112 1.787-0.221 2.651-0.328 0.43-0.054 0.856-0.108 1.275-0.161 0.418-0.056 0.841-0.067 1.252-0.102 0.823-0.059 1.624-0.118 2.404-0.175 0.778-0.055 1.528-0.131 2.264-0.127 1.462-0.033 2.83-0.064 4.095-0.093 1.166 0.042 2.237 0.081 3.204 0.116 0.478 0.014 0.931 0.027 1.358 0.039 0.531 0.034 1.027 0.065 1.49 0.095 0.532 0.035 1.015 0.067 1.455 0.095 0.814 0.128 1.648 0.196 2.498 0.196 0.117 0 0.232-0.006 0.349-0.009 0.033 0.002 0.056 0.003 0.056 0.003v-0.005c7.785-0.195 14.188-5.946 15.389-13.438 0.136 0.030 0.266 0.059 0.403 0.089 0.811 0.161 1.636 0.408 2.486 0.639 0.846 0.233 1.719 0.474 2.613 0.72 0.445 0.129 0.9 0.233 1.351 0.387 0.451 0.149 0.907 0.3 1.369 0.453 0.92 0.305 1.862 0.616 2.823 0.934 0.24 0.079 0.481 0.159 0.723 0.239 0.239 0.093 0.478 0.185 0.719 0.278 0.482 0.186 0.967 0.375 1.458 0.565 0.976 0.38 1.971 0.767 2.983 1.162 0.99 0.442 1.997 0.892 3.020 1.348 0.51 0.227 1.022 0.456 1.539 0.686 0.515 0.233 1.018 0.509 1.531 0.764 1.020 0.517 2.055 1.043 3.102 1.573 1.036 0.55 2.056 1.163 3.099 1.75 0.518 0.296 1.040 0.593 1.564 0.893 0.522 0.302 1.025 0.646 1.542 0.969 1.024 0.654 2.058 1.314 3.101 1.98 4.074 2.809 8.1 5.908 11.909 9.333 3.776 3.468 7.351 7.21 10.637 11.15 3.232 3.993 6.162 8.172 8.755 12.419 2.549 4.282 4.71 8.65 6.565 12.934 0.424 1.087 0.845 2.165 1.262 3.233 0.203 0.534 0.428 1.054 0.611 1.59 0.179 0.537 0.357 1.070 0.534 1.601 0.346 1.063 0.722 2.096 1.036 3.137 0.293 1.046 0.583 2.079 0.869 3.098 0.137 0.51 0.298 1.007 0.415 1.513 0.115 0.507 0.229 1.011 0.342 1.511 0.227 0.995 0.452 1.974 0.672 2.937 0.172 0.972 0.34 1.927 0.506 2.865 0.083 0.467 0.164 0.929 0.245 1.387 0.041 0.228 0.081 0.456 0.121 0.682 0.028 0.229 0.055 0.457 0.083 0.683 0.112 0.903 0.22 1.787 0.327 2.651 0.054 0.43 0.108 0.855 0.161 1.275 0.056 0.418 0.067 0.841 0.102 1.252 0.060 0.823 0.118 1.624 0.175 2.404 0.054 0.778 0.131 1.528 0.127 2.264 0.033 1.462 0.064 2.83 0.093 4.095-0.042 1.166-0.081 2.237-0.115 3.204-0.013 0.478-0.027 0.931-0.039 1.358-0.034 0.531-0.065 1.027-0.095 1.49-0.035 0.532-0.066 1.015-0.095 1.455-0.125 0.814-0.192 1.648-0.192 2.498 0 0.117 0.006 0.232 0.009 0.349-0.002 0.033-0.004 0.056-0.004 0.056h0.006c0.192 7.691 5.809 14.032 13.171 15.343-0.017 0.074-0.032 0.146-0.049 0.221-0.161 0.812-0.408 1.636-0.639 2.486-0.233 0.847-0.474 1.719-0.72 2.613-0.129 0.445-0.233 0.9-0.387 1.351-0.149 0.451-0.3 0.907-0.452 1.369-0.304 0.921-0.616 1.863-0.934 2.823-0.079 0.239-0.159 0.481-0.239 0.723-0.093 0.238-0.185 0.478-0.279 0.719-0.186 0.481-0.375 0.967-0.565 1.458-0.38 0.976-0.768 1.97-1.161 2.982-0.442 0.99-0.892 1.998-1.348 3.020-0.227 0.51-0.456 1.023-0.686 1.539-0.233 0.515-0.509 1.018-0.763 1.531-0.518 1.021-1.042 2.055-1.573 3.103-0.55 1.036-1.163 2.056-1.75 3.098-0.296 0.518-0.594 1.040-0.893 1.564-0.303 0.522-0.647 1.025-0.969 1.542-0.654 1.024-1.314 2.058-1.98 3.101-2.809 4.075-5.908 8.1-9.333 11.91-3.469 3.776-7.21 7.351-11.149 10.637-3.994 3.232-8.172 6.162-12.419 8.756-4.282 2.548-8.65 4.709-12.934 6.565-1.088 0.425-2.166 0.845-3.233 1.262-0.534 0.203-1.054 0.428-1.59 0.611-0.536 0.179-1.070 0.357-1.601 0.534-1.063 0.346-2.095 0.722-3.137 1.036-1.046 0.293-2.078 0.583-3.098 0.869-0.51 0.137-1.006 0.298-1.513 0.416-0.507 0.114-1.011 0.228-1.511 0.342-0.994 0.227-1.974 0.452-2.937 0.672-0.972 0.172-1.928 0.34-2.865 0.506-0.467 0.083-0.929 0.165-1.387 0.245-0.228 0.041-0.456 0.081-0.682 0.121-0.229 0.028-0.457 0.055-0.684 0.083-0.903 0.112-1.787 0.22-2.651 0.327-0.43 0.054-0.856 0.108-1.275 0.161-0.418 0.056-0.841 0.066-1.252 0.102-0.823 0.060-1.625 0.118-2.404 0.175-0.778 0.054-1.528 0.131-2.264 0.127-1.462 0.033-2.83 0.064-4.095 0.093-1.166-0.042-2.237-0.081-3.204-0.115-0.478-0.013-0.931-0.027-1.358-0.039-0.53-0.034-1.027-0.065-1.489-0.095-0.532-0.035-1.015-0.066-1.455-0.095-0.814-0.127-1.648-0.196-2.498-0.196-0.117 0-0.233 0.006-0.349 0.009-0.033-0.002-0.056-0.004-0.056-0.004v0.005c-7.751 0.194-14.131 5.897-15.372 13.341-0.8-0.16-1.612-0.403-2.448-0.631-0.847-0.233-1.719-0.474-2.614-0.72-0.445-0.129-0.9-0.234-1.351-0.387-0.451-0.149-0.907-0.301-1.37-0.453-0.92-0.304-1.862-0.616-2.823-0.935-0.24-0.079-0.481-0.158-0.723-0.238-0.239-0.093-0.478-0.185-0.719-0.279-0.481-0.186-0.967-0.375-1.457-0.565-0.976-0.381-1.971-0.768-2.983-1.162-0.99-0.442-1.997-0.892-3.020-1.347-0.51-0.227-1.022-0.456-1.539-0.686-0.515-0.233-1.018-0.509-1.531-0.763-1.020-0.518-2.055-1.043-3.103-1.574-1.036-0.55-2.056-1.163-3.099-1.749-0.519-0.296-1.040-0.594-1.564-0.893-0.522-0.303-1.025-0.647-1.541-0.97-1.025-0.654-2.058-1.314-3.1-1.98-4.074-2.808-8.1-5.908-11.909-9.332-3.776-3.469-7.352-7.21-10.638-11.149-3.232-3.993-6.162-8.171-8.755-12.419-2.549-4.282-4.71-8.65-6.565-12.934-0.425-1.088-0.846-2.166-1.263-3.233-0.203-0.534-0.428-1.054-0.611-1.59-0.178-0.537-0.357-1.071-0.534-1.601-0.346-1.063-0.722-2.095-1.035-3.137-0.294-1.046-0.583-2.079-0.868-3.099-0.138-0.509-0.297-1.006-0.415-1.513-0.115-0.507-0.229-1.011-0.342-1.511-0.227-0.995-0.452-1.975-0.672-2.938-0.172-0.971-0.34-1.928-0.506-2.865-0.083-0.467-0.164-0.929-0.245-1.387-0.041-0.228-0.081-0.456-0.121-0.683-0.028-0.228-0.056-0.457-0.083-0.684-0.111-0.903-0.221-1.787-0.328-2.65-0.054-0.43-0.108-0.856-0.16-1.275-0.056-0.419-0.067-0.841-0.102-1.253-0.059-0.822-0.118-1.624-0.175-2.404-0.055-0.778-0.131-1.528-0.127-2.264-0.033-1.462-0.064-2.83-0.093-4.095 0.042-1.166 0.081-2.237 0.116-3.204 0.014-0.478 0.027-0.931 0.039-1.358 0.034-0.53 0.065-1.026 0.095-1.489 0.035-0.532 0.067-1.014 0.095-1.455 0.124-0.815 0.192-1.649 0.192-2.499 0-0.117-0.006-0.233-0.009-0.349 0.002-0.033 0.004-0.056 0.004-0.056h-0.006c-0.195-7.845-6.034-14.288-13.61-15.418z"></path>
</symbol>
<symbol id="icon-spinner11" viewBox="0 0 256 256">
<title>spinner11</title>
<path d="M256 96h-96l35.882-35.883c-18.132-18.131-42.24-28.117-67.882-28.117s-49.75 9.986-67.882 28.117c-18.132 18.133-28.117 42.24-28.117 67.882s9.986 49.75 28.117 67.882c18.132 18.131 42.24 28.118 67.882 28.118s49.75-9.986 67.882-28.118c1.514-1.513 2.965-3.073 4.364-4.667l24.080 21.071c-23.462 26.791-57.916 43.714-96.326 43.714-70.692 0-128-57.308-128-128s57.307-128 128-128c35.346 0 67.342 14.332 90.504 37.496l37.496-37.496v96z"></path>
</symbol>
<symbol id="icon-search" viewBox="0 0 256 256">
<title>search</title>
<path d="M248.065 217.849l-60.638-51.573c-6.268-5.642-12.972-8.232-18.388-7.982 14.314-16.767 22.96-38.519 22.96-62.294 0-53.020-42.981-96-96-96s-96 42.98-96 96 42.98 96 96 96c23.775 0 45.527-8.647 62.294-22.961-0.25 5.416 2.34 12.119 7.982 18.388l51.573 60.638c8.831 9.812 23.256 10.639 32.055 1.839s7.973-23.225-1.839-32.055zM96 160c-35.346 0-64-28.654-64-64s28.654-64 64-64 64 28.654 64 64-28.654 64-64 64z"></path>
</symbol>
<symbol id="icon-key" viewBox="0 0 256 256">
<title>key</title>
<path d="M176 0c-44.183 0-80 35.817-80 80 0 5.007 0.465 9.904 1.344 14.656l-97.344 97.344v48c0 8.837 7.163 16 16 16h16v-16h32v-32h32v-32h32l20.761-20.761c8.502 3.079 17.674 4.761 27.239 4.761 44.183 0 80-35.817 80-80s-35.817-80-80-80zM199.969 80.031c-13.255 0-24-10.745-24-24s10.745-24 24-24 24 10.745 24 24-10.745 24-24 24z"></path>
</symbol>
<symbol id="icon-lock" viewBox="0 0 256 256">
<title>lock</title>
<path d="M148 112h-4v-48c0-26.468-21.532-48-48-48h-32c-26.468 0-48 21.532-48 48v48h-4c-6.6 0-12 5.4-12 12v120c0 6.6 5.4 12 12 12h136c6.6 0 12-5.4 12-12v-120c0-6.6-5.4-12-12-12zM48 64c0-8.822 7.178-16 16-16h32c8.823 0 16 7.178 16 16v48h-64v-48z"></path>
</symbol>
<symbol id="icon-unlocked" viewBox="0 0 256 256">
<title>unlocked</title>
<path d="M192 16c26.468 0 48 21.532 48 48v48h-32v-48c0-8.822-7.178-16-16-16h-32c-8.822 0-16 7.178-16 16v48h4c6.6 0 12 5.4 12 12v120c0 6.6-5.4 12-12 12h-136c-6.6 0-12-5.4-12-12v-120c0-6.6 5.4-12 12-12h100v-48c0-26.468 21.532-48 48-48h32z"></path>
</symbol>
<symbol id="icon-equalizer" viewBox="0 0 256 256">
<title>equalizer</title>
<path d="M112 32v-4c0-6.6-5.4-12-12-12h-40c-6.6 0-12 5.4-12 12v4h-48v32h48v4c0 6.6 5.4 12 12 12h40c6.6 0 12-5.4 12-12v-4h144v-32h-144zM64 64v-32h32v32h-32zM208 108c0-6.6-5.4-12-12-12h-40c-6.6 0-12 5.4-12 12v4h-144v32h144v4c0 6.6 5.4 12 12 12h40c6.6 0 12-5.4 12-12v-4h48v-32h-48v-4zM160 144v-32h32v32h-32zM112 188c0-6.6-5.4-12-12-12h-40c-6.6 0-12 5.4-12 12v4h-48v32h48v4c0 6.6 5.4 12 12 12h40c6.6 0 12-5.4 12-12v-4h144v-32h-144v-4zM64 224v-32h32v32h-32z"></path>
</symbol>
<symbol id="icon-equalizer2" viewBox="0 0 256 256">
<title>equalizer2</title>
<path d="M224 112h4c6.6 0 12-5.4 12-12v-40c0-6.6-5.4-12-12-12h-4v-48h-32v48h-4c-6.6 0-12 5.4-12 12v40c0 6.6 5.4 12 12 12h4v144h32v-144zM192 64h32v32h-32v-32zM148 208c6.6 0 12-5.4 12-12v-40c0-6.6-5.4-12-12-12h-4v-144h-32v144h-4c-6.6 0-12 5.4-12 12v40c0 6.6 5.4 12 12 12h4v48h32v-48h4zM112 160h32v32h-32v-32zM68 112c6.6 0 12-5.4 12-12v-40c0-6.6-5.4-12-12-12h-4v-48h-32v48h-4c-6.6 0-12 5.4-12 12v40c0 6.6 5.4 12 12 12h4v144h32v-144h4zM32 64h32v32h-32v-32z"></path>
</symbol>
<symbol id="icon-cog" viewBox="0 0 256 256">
<title>cog</title>
<path d="M233.447 152.563c-13.431-23.263-5.354-53.076 18.038-66.622l-25.156-43.573c-7.188 4.214-15.544 6.63-24.462 6.63-26.884 0-48.677-21.936-48.677-48.998h-50.315c0.067 8.352-2.019 16.82-6.489 24.563-13.431 23.264-43.289 31.176-66.716 17.689l-25.156 43.573c7.242 4.118 13.512 10.147 17.971 17.87 13.41 23.227 5.378 52.98-17.927 66.556l25.157 43.573c7.163-4.174 15.479-6.564 24.35-6.564 26.799 0 48.536 21.798 48.675 48.739h50.314c-0.022-8.268 2.068-16.643 6.492-24.304 13.409-23.226 43.194-31.149 66.603-17.753l25.156-43.572c-7.195-4.117-13.423-10.125-17.858-17.807zM128 179.833c-28.627 0-51.834-23.206-51.834-51.834s23.207-51.834 51.834-51.834c28.627 0 51.833 23.207 51.833 51.834s-23.206 51.834-51.833 51.834z"></path>
</symbol>
<symbol id="icon-cogs" viewBox="0 0 256 256">
<title>cogs</title>
<path d="M90.93 180.513l10.325-14.454-11.314-11.314-14.454 10.324c-2.68-1.499-5.551-2.694-8.567-3.548l-2.92-17.521h-16l-2.92 17.522c-3.016 0.855-5.886 2.049-8.566 3.548l-14.454-10.325-11.314 11.314 10.325 14.454c-1.498 2.68-2.694 5.552-3.548 8.566l-17.521 2.921v16l17.521 2.921c0.855 3.015 2.050 5.886 3.548 8.566l-10.325 14.454 11.313 11.314 14.454-10.324c2.681 1.499 5.551 2.694 8.566 3.548l2.92 17.521h16l2.92-17.522c3.016-0.855 5.886-2.049 8.567-3.548l14.454 10.324 11.314-11.314-10.325-14.454c1.498-2.68 2.694-5.552 3.548-8.566l17.522-2.92v-16l-17.522-2.921c-0.855-3.015-2.049-5.886-3.548-8.566zM56 216c-8.837 0-16-7.163-16-16s7.163-16 16-16 16 7.163 16 16-7.163 16-16 16zM256 96v-16l-16.846-3.063c-0.31-2.011-0.708-3.995-1.181-5.948l14.389-9.275-6.123-14.782-16.736 3.617c-1.054-1.727-2.181-3.405-3.373-5.032l9.751-14.085-11.314-11.314-14.085 9.752c-1.628-1.192-3.305-2.319-5.032-3.373l3.617-16.736-14.782-6.123-9.275 14.39c-1.953-0.473-3.936-0.87-5.947-1.181l-3.063-16.846h-16l-3.063 16.846c-2.012 0.311-3.994 0.708-5.947 1.181l-9.274-14.389-14.782 6.123 3.617 16.736c-1.727 1.054-3.405 2.182-5.032 3.373l-14.085-9.752-11.314 11.314 9.751 14.086c-1.192 1.627-2.32 3.305-3.374 5.032l-16.736-3.617-6.123 14.782 14.389 9.275c-0.473 1.953-0.871 3.936-1.181 5.948l-16.846 3.063v16l16.846 3.063c0.311 2.011 0.708 3.995 1.181 5.948l-14.389 9.275 6.123 14.782 16.736-3.617c1.054 1.728 2.182 3.404 3.373 5.033l-9.751 14.085 11.314 11.314 14.085-9.751c1.627 1.191 3.305 2.319 5.032 3.373l-3.617 16.736 14.782 6.123 9.275-14.389c1.952 0.473 3.935 0.87 5.947 1.181l3.063 16.846h16l3.063-16.845c2.011-0.31 3.994-0.708 5.947-1.181l9.275 14.389 14.782-6.123-3.617-16.736c1.727-1.054 3.405-2.181 5.032-3.373l14.085 9.751 11.314-11.314-9.751-14.085c1.191-1.628 2.319-3.305 3.373-5.032l16.736 3.617 6.123-14.782-14.389-9.275c0.473-1.953 0.87-3.936 1.181-5.948l16.846-3.063zM168 122.8c-19.22 0-34.8-15.581-34.8-34.8s15.58-34.8 34.8-34.8 34.8 15.581 34.8 34.8c0 19.219-15.58 34.8-34.8 34.8z"></path>
</symbol>
<symbol id="icon-bug" viewBox="0 0 256 256">
<title>bug</title>
<path d="M256 144v-16h-48.322c-1.465-18.172-7.947-34.757-17.917-48.063h40.486l17.515-70.060-15.523-3.88-14.485 57.94h-43.67c-0.223-0.173-0.449-0.343-0.674-0.514 1.678-4.876 2.59-10.105 2.59-15.548 0-26.44-21.489-47.874-48-47.874s-48 21.434-48 47.875c0 5.443 0.912 10.673 2.591 15.549-0.225 0.171-0.451 0.34-0.674 0.514h-43.67l-14.485-57.94-15.523 3.88 17.515 70.060h40.486c-9.971 13.305-16.451 29.891-17.917 48.062h-48.322v16h48.343c0.95 11.416 3.877 22.203 8.41 31.938h-30.998l-17.515 70.060 15.523 3.881 14.485-57.941h28.088c14.673 19.508 36.849 31.938 61.665 31.938s46.992-12.429 61.666-31.938h28.089l14.485 57.94 15.523-3.881-17.515-70.059h-30.998c4.532-9.734 7.459-20.522 8.409-31.938h48.342z"></path>
</symbol>
<symbol id="icon-target" viewBox="0 0 256 256">
<title>target</title>
<path d="M256 112h-25.231c-6.91-44.56-42.209-79.859-86.769-86.769v-25.231h-32v25.231c-44.56 6.91-79.859 42.209-86.769 86.769h-25.231v32h25.231c6.91 44.56 42.209 79.859 86.769 86.769v25.231h32v-25.231c44.56-6.91 79.859-42.209 86.769-86.769h25.231v-32zM198.206 112h-24.941c-4.821-13.638-15.627-24.445-29.265-29.265v-24.941c26.879 6.123 48.083 27.328 54.206 54.206zM128 144c-8.837 0-16-7.163-16-16s7.163-16 16-16c8.837 0 16 7.163 16 16s-7.163 16-16 16zM112 57.794v24.941c-13.638 4.82-24.445 15.627-29.265 29.265h-24.941c6.123-26.878 27.328-48.083 54.206-54.206zM57.794 144h24.941c4.82 13.637 15.627 24.445 29.265 29.265v24.94c-26.878-6.123-48.083-27.327-54.206-54.206zM144 198.206v-24.941c13.637-4.821 24.445-15.627 29.265-29.265h24.94c-6.123 26.879-27.327 48.083-54.206 54.206z"></path>
</symbol>
<symbol id="icon-power" viewBox="0 0 256 256">
<title>power</title>
<path d="M96 0l-96 128h96l-64 128 224-160h-128l96-96z"></path>
</symbol>
<symbol id="icon-switch" viewBox="0 0 256 256">
<title>switch</title>
<path d="M160 36.647v33.989c9.052 3.951 17.375 9.602 24.569 16.795 15.111 15.11 23.431 35.2 23.431 56.569s-8.322 41.459-23.431 56.569c-15.11 15.11-35.2 23.431-56.569 23.431s-41.459-8.322-56.569-23.431c-15.11-15.11-23.431-35.2-23.431-56.569s8.322-41.459 23.431-56.569c7.194-7.194 15.517-12.844 24.569-16.796v-33.989c-46.262 13.77-80 56.618-80 107.353 0 61.856 50.144 112 112 112s112-50.144 112-112c0-50.735-33.738-93.583-80-107.353zM112 0h32v128h-32z"></path>
</symbol>
<symbol id="icon-power-cord" viewBox="0 0 256 256">
<title>power-cord</title>
<path d="M256 70.625l-22.626-22.625-44.686 44.688-25.375-25.376 44.688-44.688-22.625-22.625-44.688 44.688-28.687-28.688-21.657 21.656 128 128 21.656-21.655-28.688-28.688 44.688-44.688z"></path>
<path d="M198.51 168.447l-110.956-110.956c-23.954 28.726-51.13 73.114-32.349 111.304l-33.062 33.062c-7.778 7.779-7.778 20.506 0 28.284l3.715 3.714c7.779 7.779 20.506 7.779 28.285 0l33.061-33.061c38.191 18.783 82.579-8.392 111.306-32.347z"></path>
</symbol>
<symbol id="icon-tree" viewBox="0 0 256 256">
<title>tree</title>
<path d="M244 192h-4v-52c0-15.439-12.56-28-28-28h-68v-32h4c6.6 0 12-5.4 12-12v-40c0-6.6-5.4-12-12-12h-40c-6.6 0-12 5.4-12 12v40c0 6.6 5.4 12 12 12h4v32h-68c-15.439 0-28 12.561-28 28v52h-4c-6.6 0-12 5.4-12 12v40c0 6.6 5.4 12 12 12h40c6.6 0 12-5.4 12-12v-40c0-6.6-5.4-12-12-12h-4v-48h64v48h-4c-6.6 0-12 5.4-12 12v40c0 6.6 5.4 12 12 12h40c6.6 0 12-5.4 12-12v-40c0-6.6-5.4-12-12-12h-4v-48h64v48h-4c-6.6 0-12 5.4-12 12v40c0 6.6 5.4 12 12 12h40c6.6 0 12-5.4 12-12v-40c0-6.6-5.4-12-12-12zM48 240h-32v-32h32v32zM144 240h-32v-32h32v32zM112 64v-32h32v32h-32zM240 240h-32v-32h32v32z"></path>
</symbol>
<symbol id="icon-smile" viewBox="0 0 256 256">
<title>smile</title>
<path d="M128 256c70.692 0 128-57.308 128-128s-57.308-128-128-128-128 57.307-128 128 57.307 128 128 128zM128 24c57.438 0 104 46.563 104 104s-46.563 104-104 104-104-46.563-104-104 46.563-104 104-104zM64 80c0-8.837 7.163-16 16-16s16 7.163 16 16c0 8.837-7.163 16-16 16s-16-7.163-16-16zM160 80c0-8.837 7.163-16 16-16s16 7.163 16 16c0 8.837-7.163 16-16 16s-16-7.163-16-16zM176.024 156.815l20.582 12.349c-13.99 23.267-39.479 38.836-68.606 38.836s-54.616-15.569-68.606-38.836l20.582-12.349c9.793 16.287 27.636 27.185 48.025 27.185s38.231-10.898 48.025-27.185z"></path>
</symbol>
<symbol id="icon-tongue" viewBox="0 0 256 256">
<title>tongue</title>
<path d="M128 256c70.692 0 128-57.308 128-128s-57.308-128-128-128-128 57.307-128 128 57.307 128 128 128zM128 24c57.438 0 104 46.563 104 104s-46.563 104-104 104-104-46.563-104-104 46.563-104 104-104zM64 80c0-8.837 7.163-16 16-16s16 7.163 16 16c0 8.837-7.163 16-16 16s-16-7.163-16-16zM160 80c0-8.837 7.163-16 16-16s16 7.163 16 16c0 8.837-7.163 16-16 16s-16-7.163-16-16zM192 144v16h-16v24c0 13.255-10.745 24-24 24s-24-10.745-24-24v-24h-64v-16h128z"></path>
</symbol>
<symbol id="icon-angry" viewBox="0 0 256 256">
<title>angry</title>
<path d="M128 256c70.692 0 128-57.308 128-128s-57.308-128-128-128-128 57.307-128 128 57.307 128 128 128zM128 24c57.438 0 104 46.563 104 104s-46.563 104-104 104-104-46.563-104-104 46.563-104 104-104zM176.024 195.185c-9.793-16.287-27.636-27.185-48.025-27.185s-38.231 10.898-48.025 27.185l-20.582-12.349c13.99-23.267 39.479-38.836 68.606-38.836s54.616 15.569 68.607 38.836l-20.582 12.349zM191.761 70.060c1.071 4.286-1.535 8.63-5.821 9.701-4.406 1.112-9.631 3.030-14.234 5.338 2.662 2.858 4.293 6.688 4.293 10.901 0 8.837-7.163 16-16 16s-16-7.163-16-16c0-0.293 0.009-0.582 0.024-0.871 0.508-11.864 11.303-19.736 20.398-24.284 8.685-4.343 17.275-6.515 17.637-6.606 4.286-1.072 8.63 1.534 9.702 5.821zM64.24 70.060c1.072-4.287 5.415-6.893 9.701-5.821 0.362 0.091 8.951 2.263 17.637 6.606 9.095 4.548 19.89 12.421 20.398 24.285 0.016 0.288 0.025 0.579 0.025 0.871 0 8.837-7.163 16-16 16s-16-7.163-16-16c0-4.213 1.632-8.044 4.293-10.901-4.603-2.308-9.828-4.225-14.234-5.338-4.285-1.072-6.892-5.415-5.82-9.701z"></path>
</symbol>
<symbol id="icon-shocked" viewBox="0 0 256 256">
<title>shocked</title>
<path d="M128 256c70.692 0 128-57.308 128-128s-57.308-128-128-128-128 57.307-128 128 57.307 128 128 128zM128 24c57.438 0 104 46.563 104 104s-46.563 104-104 104-104-46.563-104-104 46.563-104 104-104zM96 176c0-17.673 14.327-32 32-32s32 14.327 32 32c0 17.673-14.327 32-32 32s-32-14.327-32-32zM160 88c0-13.255 7.163-24 16-24s16 10.745 16 24c0 13.255-7.163 24-16 24s-16-10.745-16-24zM64 88c0-13.255 7.163-24 16-24s16 10.745 16 24c0 13.255-7.163 24-16 24s-16-10.745-16-24z"></path>
</symbol>
<symbol id="icon-baffled" viewBox="0 0 256 256">
<title>baffled</title>
<path d="M128 256c70.692 0 128-57.308 128-128s-57.308-128-128-128-128 57.307-128 128 57.307 128 128 128zM128 24c57.438 0 104 46.563 104 104s-46.563 104-104 104-104-46.563-104-104 46.563-104 104-104z"></path>
<path d="M96 104c0 4.418-3.582 8-8 8s-8-3.582-8-8c0-4.418 3.582-8 8-8s8 3.582 8 8z"></path>
<path d="M88 80c13.255 0 24 10.745 24 24s-10.745 24-24 24-24-10.745-24-24 10.745-24 24-24zM88 64c-22.056 0-40 17.944-40 40s17.944 40 40 40 40-17.944 40-40-17.944-40-40-40v0z"></path>
<path d="M176 104c0 4.418-3.582 8-8 8s-8-3.582-8-8c0-4.418 3.582-8 8-8s8 3.582 8 8z"></path>
<path d="M168 80c13.255 0 24 10.745 24 24s-10.745 24-24 24-24-10.745-24-24 10.745-24 24-24zM168 64c-22.056 0-40 17.944-40 40s17.944 40 40 40 40-17.944 40-40-17.944-40-40-40v0z"></path>
<path d="M96 176h64v16h-64v-16z"></path>
</symbol>
<symbol id="icon-confused" viewBox="0 0 256 256">
<title>confused</title>
<path d="M128 256c70.692 0 128-57.308 128-128s-57.308-128-128-128-128 57.307-128 128 57.307 128 128 128zM128 24c57.438 0 104 46.563 104 104s-46.563 104-104 104-104-46.563-104-104 46.563-104 104-104zM64 80c0-8.837 7.163-16 16-16s16 7.163 16 16c0 8.837-7.163 16-16 16s-16-7.163-16-16zM160 80c0-8.837 7.163-16 16-16s16 7.163 16 16c0 8.837-7.163 16-16 16s-16-7.163-16-16zM181.526 160h16.216c2.311 18.126-8.113 36.132-25.989 42.64-20.726 7.544-43.725-3.179-51.27-23.904-4.527-12.436-18.326-18.87-30.762-14.343-11.391 4.147-17.739 16.075-15.247 27.606h-16.215c-2.31-18.127 8.112-36.132 25.989-42.64 20.726-7.544 43.725 3.179 51.271 23.904 4.526 12.437 18.327 18.87 30.761 14.343 11.391-4.146 17.739-16.075 15.247-27.606z"></path>
</symbol>
<symbol id="icon-neutral" viewBox="0 0 256 256">
<title>neutral</title>
<path d="M128 256c70.692 0 128-57.308 128-128s-57.308-128-128-128-128 57.307-128 128 57.307 128 128 128zM128 24c57.438 0 104 46.563 104 104s-46.563 104-104 104-104-46.563-104-104 46.563-104 104-104zM64 80c0 8.837 7.163 16 16 16s16-7.163 16-16-7.163-16-16-16-16 7.163-16 16zM160 80c0 8.837 7.163 16 16 16s16-7.163 16-16-7.163-16-16-16-16 7.163-16 16zM96 176h64v16h-64v-16z"></path>
</symbol>
<symbol id="icon-sleepy" viewBox="0 0 256 256">
<title>sleepy</title>
<path d="M128 256c70.692 0 128-57.308 128-128s-57.308-128-128-128-128 57.307-128 128 57.307 128 128 128zM128 24c57.438 0 104 46.563 104 104s-46.563 104-104 104-104-46.563-104-104 46.563-104 104-104z"></path>
<path d="M160 168c0 22.091-14.327 40-32.001 40s-32.001-17.909-32.001-40c0-22.091 14.327-40 32.001-40s32.001 17.909 32.001 40z"></path>
<path d="M104 85c-2.047 0-4.094-0.781-5.656-2.344-4.834-4.833-15.853-4.833-20.686 0-3.124 3.124-8.189 3.124-11.314 0s-3.124-8.189 0-11.314c11.132-11.133 32.181-11.133 43.314 0 3.124 3.124 3.124 8.189 0 11.314-1.562 1.563-3.609 2.344-5.657 2.344z"></path>
<path d="M184 85c-2.048 0-4.095-0.781-5.656-2.344-4.833-4.833-15.853-4.833-20.686 0-3.124 3.124-8.19 3.124-11.314 0s-3.125-8.189 0-11.314c11.132-11.133 32.181-11.133 43.314 0 3.125 3.124 3.125 8.189 0 11.314-1.562 1.563-3.609 2.344-5.657 2.344z"></path>
</symbol>
<symbol id="icon-frustrated" viewBox="0 0 256 256">
<title>frustrated</title>
<path d="M91.578 70.844c-8.686-4.343-17.275-6.515-17.637-6.606-4.287-1.072-8.63 1.534-9.701 5.821s1.535 8.629 5.82 9.701c4.406 1.112 9.63 3.030 14.234 5.338-2.662 2.858-4.293 6.688-4.293 10.901 0 8.837 7.163 16 16 16s16-7.163 16-16c0-0.293-0.009-0.582-0.025-0.871-0.508-11.864-11.303-19.736-20.398-24.284z"></path>
<path d="M128 0c-70.692 0-128 57.307-128 128s57.307 128 128 128 128-57.308 128-128-57.308-128-128-128zM59.124 205.916c2.676 1.331 5.689 2.084 8.876 2.084h120c3.186 0 6.199-0.753 8.875-2.084-18.345 16.228-42.457 26.084-68.876 26.084s-50.531-9.856-68.876-26.084zM64 188v-24c0-2.168 1.832-4 4-4h28v32h-28c-2.168 0-4-1.832-4-4zM112 192v-32h32v32h-32zM160 192v-32h28c2.168 0 4 1.832 4 4v24c0 2.168-1.832 4-4 4h-28zM205.916 196.875c1.332-2.677 2.084-5.689 2.084-8.875v-24c0-11.028-8.972-20-20-20h-120c-11.028 0-20 8.972-20 20v24c0 3.186 0.753 6.199 2.084 8.875-16.228-18.345-26.084-42.457-26.084-68.876 0-57.438 46.563-104 104-104s104 46.563 104 104c0 26.419-9.856 50.531-26.084 68.876z"></path>
<path d="M182.059 64.239c-0.362 0.091-8.952 2.263-17.637 6.606-9.095 4.548-19.889 12.421-20.398 24.285-0.015 0.288-0.024 0.579-0.024 0.871 0 8.837 7.163 16 16 16s16-7.163 16-16c0-4.213-1.631-8.044-4.293-10.901 4.603-2.308 9.827-4.225 14.234-5.338 4.286-1.072 6.892-5.415 5.821-9.701-1.072-4.287-5.416-6.893-9.702-5.821z"></path>
</symbol>
<symbol id="icon-crying" viewBox="0 0 256 256">
<title>crying</title>
<path d="M128 256c70.692 0 128-57.308 128-128s-57.308-128-128-128-128 57.307-128 128 57.307 128 128 128zM128 24c57.438 0 104 46.563 104 104s-46.563 104-104 104-104-46.563-104-104 46.563-104 104-104z"></path>
<path d="M200 96h-32c-4.418 0-8-3.582-8-8s3.582-8 8-8h32c4.418 0 8 3.582 8 8s-3.582 8-8 8z"></path>
<path d="M88 96h-32c-4.418 0-8-3.582-8-8s3.582-8 8-8h32c4.418 0 8 3.582 8 8s-3.582 8-8 8z"></path>
<path d="M152 214c-2.048 0-4.095-0.781-5.656-2.344-1.145-1.145-7.355-3.656-18.344-3.656s-17.198 2.511-18.344 3.656c-3.124 3.124-8.189 3.124-11.314 0s-3.124-8.19 0-11.314c7.531-7.53 23.249-8.343 29.657-8.343s22.127 0.813 29.657 8.344c3.125 3.124 3.125 8.19 0 11.314-1.562 1.562-3.609 2.343-5.656 2.343z"></path>
<path d="M184 144c-4.418 0-8-3.582-8-8v-16c0-4.418 3.582-8 8-8s8 3.582 8 8v16c0 4.418-3.582 8-8 8z"></path>
<path d="M184 192c-4.418 0-8-3.582-8-8v-16c0-4.418 3.582-8 8-8s8 3.582 8 8v16c0 4.418-3.582 8-8 8z"></path>
<path d="M72 144c-4.418 0-8-3.582-8-8v-16c0-4.418 3.582-8 8-8s8 3.582 8 8v16c0 4.418-3.582 8-8 8z"></path>
<path d="M72 192c-4.418 0-8-3.582-8-8v-16c0-4.418 3.582-8 8-8s8 3.582 8 8v16c0 4.418-3.582 8-8 8z"></path>
</symbol>
<symbol id="icon-warning" viewBox="0 0 256 256">
<title>warning</title>
<path d="M128 23.194l107.275 213.806h-214.552l107.276-213.806zM128 0c-5.517 0-11.035 3.72-15.221 11.162l-109.269 217.778c-8.371 14.883-1.25 27.060 15.826 27.060h217.327c17.075 0 24.198-12.177 15.825-27.060h0l-109.269-217.778c-4.185-7.441-9.703-11.162-15.221-11.162v0z"></path>
<path d="M144 208c0 8.837-7.163 16-16 16s-16-7.163-16-16c0-8.837 7.163-16 16-16s16 7.163 16 16z"></path>
<path d="M128 176c-8.837 0-16-7.163-16-16v-48c0-8.837 7.163-16 16-16s16 7.163 16 16v48c0 8.837-7.163 16-16 16z"></path>
</symbol>
<symbol id="icon-notification" viewBox="0 0 256 256">
<title>notification</title>
<path d="M128 24c-27.779 0-53.896 10.818-73.539 30.461s-30.461 45.76-30.461 73.539c0 27.779 10.818 53.896 30.461 73.539s45.76 30.461 73.539 30.461c27.779 0 53.896-10.818 73.539-30.461s30.461-45.76 30.461-73.539c0-27.779-10.818-53.896-30.461-73.539s-45.76-30.461-73.539-30.461zM128 0v0c70.692 0 128 57.307 128 128s-57.308 128-128 128c-70.692 0-128-57.308-128-128s57.307-128 128-128zM112 176h32v32h-32zM112 48h32v96h-32z"></path>
</symbol>
<symbol id="icon-cancel-circle" viewBox="0 0 256 256">
<title>cancel-circle</title>
<path d="M128 0c-70.692 0-128 57.307-128 128s57.307 128 128 128 128-57.308 128-128-57.308-128-128-128zM128 232c-57.438 0-104-46.563-104-104s46.563-104 104-104 104 46.563 104 104-46.563 104-104 104z"></path>
<path d="M168 64l-40 40-40-40-24 24 40 40-40 40 24 24 40-40 40 40 24-24-40-40 40-40z"></path>
</symbol>
<symbol id="icon-blocked" viewBox="0 0 256 256">
<title>blocked</title>
<path d="M218.51 37.49c-24.177-24.175-56.32-37.49-90.51-37.49s-66.334 13.315-90.51 37.49c-24.175 24.176-37.49 56.32-37.49 90.51s13.315 66.334 37.49 90.51c24.177 24.175 56.32 37.49 90.51 37.49s66.334-13.315 90.51-37.49c24.175-24.177 37.49-56.32 37.49-90.51s-13.315-66.334-37.49-90.51zM224 128c0 20.703-6.589 39.897-17.778 55.595l-133.816-133.817c15.698-11.19 34.891-17.778 55.594-17.778 52.935 0 96 43.065 96 96zM32 128c0-20.703 6.588-39.897 17.778-55.594l133.817 133.817c-15.698 11.189-34.892 17.778-55.596 17.778-52.934 0-96-43.066-96-96z"></path>
</symbol>
<symbol id="icon-cross" viewBox="0 0 256 256">
<title>cross</title>
<path d="M253.666 205.665c-0.001-0.001-0.002-0.002-0.003-0.002l-77.661-77.662 77.661-77.662c0.001-0.001 0.002-0.002 0.003-0.002 0.836-0.837 1.44-1.813 1.828-2.854 1.061-2.844 0.456-6.17-1.831-8.457l-36.686-36.687c-2.287-2.287-5.613-2.892-8.457-1.83-1.040 0.387-2.018 0.992-2.855 1.827 0 0.001-0.001 0.002-0.002 0.002l-77.662 77.663-77.662-77.662c-0.001-0.001-0.002-0.002-0.002-0.002-0.837-0.836-1.813-1.44-2.853-1.827-2.845-1.062-6.17-0.457-8.457 1.83l-36.687 36.687c-2.287 2.287-2.892 5.613-1.831 8.457 0.388 1.040 0.992 2.018 1.828 2.854 0.001 0.001 0.002 0.002 0.002 0.002l77.662 77.662-77.662 77.663c-0.001 0.001-0.002 0.001-0.002 0.002-0.836 0.837-1.44 1.814-1.829 2.853-1.062 2.844-0.457 6.171 1.83 8.458l36.687 36.686c2.288 2.287 5.613 2.892 8.457 1.831 1.040-0.388 2.017-0.993 2.854-1.828 0.001-0.001 0.002-0.001 0.002-0.002l77.662-77.662 77.662 77.662c0.001 0 0.002 0.001 0.003 0.002 0.837 0.836 1.814 1.44 2.853 1.828 2.845 1.061 6.171 0.457 8.457-1.831l36.686-36.687c2.287-2.287 2.892-5.613 1.831-8.458-0.388-1.040-0.993-2.017-1.828-2.853z"></path>
</symbol>
<symbol id="icon-play3" viewBox="0 0 256 256">
<title>play3</title>
<path d="M48 32l160 96-160 96z"></path>
</symbol>
<symbol id="icon-pause2" viewBox="0 0 256 256">
<title>pause2</title>
<path d="M32 32h80v192h-80zM144 32h80v192h-80z"></path>
</symbol>
<symbol id="icon-stop2" viewBox="0 0 256 256">
<title>stop2</title>
<path d="M32 32h192v192h-192z"></path>
</symbol>
<symbol id="icon-backward2" viewBox="0 0 256 256">
<title>backward2</title>
<path d="M144 40v80l80-80v176l-80-80v80l-88-88z"></path>
</symbol>
<symbol id="icon-forward3" viewBox="0 0 256 256">
<title>forward3</title>
<path d="M128 216v-80l-80 80v-176l80 80v-80l88 88z"></path>
</symbol>
<symbol id="icon-first" viewBox="0 0 256 256">
<title>first</title>
<path d="M32 224v-192h32v88l80-80v80l80-80v176l-80-80v80l-80-80v88z"></path>
</symbol>
<symbol id="icon-last" viewBox="0 0 256 256">
<title>last</title>
<path d="M224 32v192h-32v-88l-80 80v-80l-80 80v-176l80 80v-80l80 80v-88z"></path>
</symbol>
<symbol id="icon-previous2" viewBox="0 0 256 256">
<title>previous2</title>
<path d="M64 224v-192h32v88l80-80v176l-80-80v88z"></path>
</symbol>
<symbol id="icon-next2" viewBox="0 0 256 256">
<title>next2</title>
<path d="M192 32v192h-32v-88l-80 80v-176l80 80v-88z"></path>
</symbol>
<symbol id="icon-loop2" viewBox="0 0 256 256">
<title>loop2</title>
<path d="M222.42 41.58c-23.402-25.554-57.038-41.58-94.42-41.58-70.692 0-128 57.307-128 128h24c0-57.438 46.563-104 104-104 30.755 0 58.385 13.355 77.424 34.577l-37.424 37.423h88v-88l-33.58 33.58z"></path>
<path d="M232 128c0 57.438-46.563 104-104 104-30.755 0-58.386-13.355-77.424-34.577l37.424-37.423h-88v88l33.58-33.58c23.402 25.554 57.038 41.58 94.42 41.58 70.692 0 128-57.308 128-128h-24z"></path>
</symbol>
<symbol id="icon-checkbox-checked" viewBox="0 0 256 256">
<title>checkbox-checked</title>
<path d="M224 0h-192c-17.6 0-32 14.4-32 32v192c0 17.6 14.4 32 32 32h192c17.6 0 32-14.4 32-32v-192c0-17.6-14.4-32-32-32zM112 198.627l-59.313-59.314 22.628-22.627 36.686 36.686 76.686-76.686 22.627 22.627-99.314 99.314z"></path>
</symbol>
<symbol id="icon-terminal" viewBox="0 0 256 256">
<title>terminal</title>
<path d="M0 16v224h256v-224h-256zM240 224h-224v-192h224v192zM224 48h-192v160h192v-160zM112 128h-16v16h-16v16h-16v-16h16v-16h16v-16h-16v-16h-16v-16h16v16h16v16h16v16zM176 160h-48v-16h48v16z"></path>
</symbol>
</defs>
</svg>
